<svg width="212" height="212" viewBox="0 0 212 212" fill="none" xmlns="http://www.w3.org/2000/svg">
<path d="M197.85 28.2232H13.2262C12.7329 28.2232 12.2598 28.0272 11.911 27.6784C11.5622 27.3296 11.3663 26.8565 11.3663 26.3632C11.3663 25.8699 11.5622 25.3969 11.911 25.0481C12.2598 24.6993 12.7329 24.5033 13.2262 24.5033H197.85C198.343 24.5033 198.816 24.6993 199.165 25.0481C199.514 25.3969 199.71 25.8699 199.71 26.3632C199.71 26.8565 199.514 27.3296 199.165 27.6784C198.816 28.0272 198.343 28.2232 197.85 28.2232ZM199.71 46.7887C199.71 46.2954 199.514 45.8223 199.165 45.4735C198.816 45.1247 198.343 44.9287 197.85 44.9287H13.2262C12.7329 44.9287 12.2598 45.1247 11.911 45.4735C11.5622 45.8223 11.3663 46.2954 11.3663 46.7887C11.3663 47.2819 11.5622 47.755 11.911 48.1038C12.2598 48.4526 12.7329 48.6486 13.2262 48.6486H197.85C198.343 48.6486 198.816 48.4526 199.165 48.1038C199.514 47.755 199.71 47.2819 199.71 46.7887ZM199.71 67.2141C199.71 66.7208 199.514 66.2477 199.165 65.8989C198.816 65.5501 198.343 65.3541 197.85 65.3541H13.2262C12.7329 65.3541 12.2598 65.5501 11.911 65.8989C11.5622 66.2477 11.3663 66.7208 11.3663 67.2141C11.3663 67.7074 11.5622 68.1804 11.911 68.5292C12.2598 68.8781 12.7329 69.074 13.2262 69.074H197.85C198.343 69.074 198.816 68.8781 199.165 68.5292C199.514 68.1804 199.71 67.7074 199.71 67.2141ZM199.71 87.6395C199.71 87.1462 199.514 86.6731 199.165 86.3243C198.816 85.9755 198.343 85.7796 197.85 85.7796H13.2262C12.7329 85.7796 12.2598 85.9755 11.911 86.3243C11.5622 86.6731 11.3663 87.1462 11.3663 87.6395C11.3663 88.1328 11.5622 88.6059 11.911 88.9547C12.2598 89.3035 12.7329 89.4994 13.2262 89.4994H197.85C198.343 89.4994 198.816 89.3035 199.165 88.9547C199.514 88.6059 199.71 88.1328 199.71 87.6395ZM199.71 108.065C199.71 107.572 199.514 107.099 199.165 106.75C198.816 106.401 198.343 106.205 197.85 106.205H13.2262C12.7329 106.205 12.2598 106.401 11.911 106.75C11.5622 107.099 11.3663 107.572 11.3663 108.065C11.3663 108.558 11.5622 109.031 11.911 109.38C12.2598 109.729 12.7329 109.925 13.2262 109.925H197.85C198.343 109.925 198.816 109.729 199.165 109.38C199.514 109.031 199.71 108.558 199.71 108.065ZM199.71 128.49C199.71 127.997 199.514 127.524 199.165 127.175C198.816 126.826 198.343 126.63 197.85 126.63H13.2262C12.7329 126.63 12.2598 126.826 11.911 127.175C11.5622 127.524 11.3663 127.997 11.3663 128.49C11.3663 128.984 11.5622 129.457 11.911 129.806C12.2598 130.154 12.7329 130.35 13.2262 130.35H197.85C198.343 130.35 198.816 130.154 199.165 129.806C199.514 129.457 199.71 128.984 199.71 128.49ZM199.71 148.916C199.71 148.422 199.514 147.949 199.165 147.601C198.816 147.252 198.343 147.056 197.85 147.056H13.2262C12.7329 147.056 12.2598 147.252 11.911 147.601C11.5622 147.949 11.3663 148.422 11.3663 148.916C11.3663 149.409 11.5622 149.882 11.911 150.231C12.2598 150.58 12.7329 150.776 13.2262 150.776H197.85C198.343 150.776 198.816 150.58 199.165 150.231C199.514 149.882 199.71 149.409 199.71 148.916ZM199.71 169.341C199.71 168.848 199.514 168.375 199.165 168.026C198.816 167.677 198.343 167.481 197.85 167.481H13.2262C12.7329 167.481 12.2598 167.677 11.911 168.026C11.5622 168.375 11.3663 168.848 11.3663 169.341C11.3663 169.834 11.5622 170.308 11.911 170.656C12.2598 171.005 12.7329 171.201 13.2262 171.201H197.85C198.343 171.201 198.816 171.005 199.165 170.656C199.514 170.308 199.71 169.834 199.71 169.341ZM199.71 189.767C199.71 189.273 199.514 188.8 199.165 188.451C198.816 188.103 198.343 187.907 197.85 187.907H13.2262C12.7329 187.907 12.2598 188.103 11.911 188.451C11.5622 188.8 11.3663 189.273 11.3663 189.767C11.3663 190.26 11.5622 190.733 11.911 191.082C12.2598 191.431 12.7329 191.627 13.2262 191.627H197.85C198.343 191.627 198.816 191.431 199.165 191.082C199.514 190.733 199.71 190.26 199.71 189.767Z" fill="#DCE2E2"/>
<path d="M177.758 193.033C176.713 193.033 175.661 192.704 174.764 192.024L102.235 137.013C101.551 136.494 101.014 135.807 100.675 135.019C100.337 134.23 100.208 133.368 100.303 132.515L105.515 85.5059L13.2806 33.7897C10.8912 32.4502 10.0406 29.4272 11.3801 27.0382C12.7197 24.6492 15.7431 23.7982 18.1317 25.1377L113.232 78.4605C114.082 78.937 114.773 79.6532 115.218 80.5197C115.663 81.3863 115.844 82.3648 115.736 83.3331L110.472 130.811L180.759 184.121C182.941 185.776 183.368 188.887 181.713 191.069C181.25 191.68 180.653 192.175 179.966 192.516C179.28 192.857 178.524 193.033 177.758 193.033Z" fill="#FF383C"/>
<path d="M197.85 202.012H13.2262C12.4589 202.012 11.723 201.707 11.1804 201.164C10.6378 200.622 10.333 199.886 10.333 199.119V16.2586C10.333 15.4912 10.6378 14.7553 11.1804 14.2127C11.723 13.6701 12.4589 13.3653 13.2262 13.3653C13.9936 13.3653 14.7295 13.6701 15.2721 14.2127C15.8147 14.7553 16.1195 15.4912 16.1195 16.2586V196.225H197.85C198.617 196.225 199.353 196.53 199.896 197.073C200.438 197.615 200.743 198.351 200.743 199.119C200.743 199.886 200.438 200.622 199.896 201.164C199.353 201.707 198.617 202.012 197.85 202.012Z" fill="#B9C5C6"/>
</svg>
