<svg width="261" height="261" viewBox="0 0 261 261" fill="none" xmlns="http://www.w3.org/2000/svg">
<path d="M152.102 228.152H173.83M152.102 228.152C147.779 228.152 143.634 226.435 140.578 223.379C137.522 220.323 135.805 216.178 135.805 211.856V184.695H130.373M152.102 228.152H108.644M130.373 184.695H124.941V211.856C124.941 216.178 123.224 220.323 120.167 223.379C117.111 226.435 112.966 228.152 108.644 228.152M130.373 184.695V228.152M108.644 228.152H86.9151M173.83 32.5932H86.9151C56.1906 32.5932 40.8175 32.5932 31.2786 42.143C21.7288 51.6819 21.7288 67.0551 21.7288 97.7796V119.508C21.7288 150.233 21.7288 165.606 31.2786 175.145C40.8175 184.695 56.1906 184.695 86.9151 184.695H173.83C204.555 184.695 219.928 184.695 229.467 175.145C239.017 165.606 239.017 150.233 239.017 119.508V97.7796C239.017 67.0551 239.017 51.6819 229.467 42.143C219.928 32.5932 204.555 32.5932 173.83 32.5932Z" stroke="#D21C1C" stroke-width="2.83419" stroke-linecap="round" stroke-linejoin="round"/>
<path d="M173.83 130.373L146.669 103.212C143.703 100.246 142.226 98.7682 140.629 97.9751C139.129 97.2321 137.478 96.8455 135.805 96.8455C134.131 96.8455 132.481 97.2321 130.981 97.9751C129.384 98.7682 127.907 100.257 124.941 103.212C121.975 106.178 120.497 107.655 118.9 108.448C117.4 109.191 115.75 109.578 114.076 109.578C112.403 109.578 110.752 109.191 109.252 108.448C107.655 107.655 106.178 106.167 103.212 103.212L76.0508 76.0508M184.695 108.644V127.266C184.695 133.849 184.695 137.152 182.652 139.195C180.599 141.237 177.307 141.237 170.723 141.237H152.102" stroke="#D21C1C" stroke-width="2.83419" stroke-linecap="round" stroke-linejoin="round"/>
</svg>
